<mxfile host="app.diagrams.net" modified="2023-03-27T09:38:56.631Z" agent="5.0 (Macintosh; Intel Mac OS X 10_15_7) AppleWebKit/537.36 (KHTML, like Gecko) Chrome/110.0.0.0 Safari/537.36" etag="qiN_Smrbb_FsBKKju9kp" version="21.0.8" type="github">
  <diagram name="第 1 页" id="tdK5ZWi2FAHkuQVeb3jL">
    <mxGraphModel dx="1622" dy="513" grid="1" gridSize="10" guides="1" tooltips="1" connect="1" arrows="1" fold="1" page="1" pageScale="1" pageWidth="827" pageHeight="1169" math="0" shadow="0">
      <root>
        <mxCell id="0" />
        <mxCell id="1" parent="0" />
        <mxCell id="dCPt5uYmCE7IjtqLBRDj-9" value="" style="rounded=0;whiteSpace=wrap;html=1;fillColor=none;dashed=1;" vertex="1" parent="1">
          <mxGeometry x="-190" y="120" width="1650" height="440" as="geometry" />
        </mxCell>
        <mxCell id="dCPt5uYmCE7IjtqLBRDj-2" value="work-order-platform" style="shape=umlLifeline;perimeter=lifelinePerimeter;whiteSpace=wrap;html=1;container=1;dropTarget=0;collapsible=0;recursiveResize=0;outlineConnect=0;portConstraint=eastwest;newEdgeStyle={&quot;edgeStyle&quot;:&quot;elbowEdgeStyle&quot;,&quot;elbow&quot;:&quot;vertical&quot;,&quot;curved&quot;:0,&quot;rounded&quot;:0};" vertex="1" parent="1">
          <mxGeometry x="120" y="60" width="130" height="650" as="geometry" />
        </mxCell>
        <mxCell id="dCPt5uYmCE7IjtqLBRDj-11" value="" style="html=1;points=[];perimeter=orthogonalPerimeter;outlineConnect=0;targetShapes=umlLifeline;portConstraint=eastwest;newEdgeStyle={&quot;edgeStyle&quot;:&quot;elbowEdgeStyle&quot;,&quot;elbow&quot;:&quot;vertical&quot;,&quot;curved&quot;:0,&quot;rounded&quot;:0};" vertex="1" parent="dCPt5uYmCE7IjtqLBRDj-2">
          <mxGeometry x="60" y="90" width="10" height="160" as="geometry" />
        </mxCell>
        <mxCell id="dCPt5uYmCE7IjtqLBRDj-12" value="" style="html=1;points=[];perimeter=orthogonalPerimeter;outlineConnect=0;targetShapes=umlLifeline;portConstraint=eastwest;newEdgeStyle={&quot;edgeStyle&quot;:&quot;elbowEdgeStyle&quot;,&quot;elbow&quot;:&quot;vertical&quot;,&quot;curved&quot;:0,&quot;rounded&quot;:0};" vertex="1" parent="dCPt5uYmCE7IjtqLBRDj-2">
          <mxGeometry x="70" y="120" width="10" height="40" as="geometry" />
        </mxCell>
        <mxCell id="dCPt5uYmCE7IjtqLBRDj-13" value="self call" style="html=1;align=left;spacingLeft=2;endArrow=block;rounded=0;edgeStyle=orthogonalEdgeStyle;curved=0;rounded=0;" edge="1" target="dCPt5uYmCE7IjtqLBRDj-12" parent="dCPt5uYmCE7IjtqLBRDj-2">
          <mxGeometry relative="1" as="geometry">
            <mxPoint x="70" y="110" as="sourcePoint" />
            <Array as="points">
              <mxPoint x="100" y="140" />
            </Array>
          </mxGeometry>
        </mxCell>
        <mxCell id="dCPt5uYmCE7IjtqLBRDj-3" value="&lt;pre style=&quot;background-color:#2b2b2b;color:#a9b7c6;font-family:&#39;JetBrains Mono&#39;,monospace;font-size:9.8pt;&quot;&gt;&lt;div style=&quot;color: rgb(0, 0, 0); background-color: rgb(255, 255, 254); font-size: 12px; line-height: 18px;&quot;&gt;process-control-center&lt;/div&gt;&lt;/pre&gt;" style="shape=umlLifeline;perimeter=lifelinePerimeter;whiteSpace=wrap;html=1;container=1;dropTarget=0;collapsible=0;recursiveResize=0;outlineConnect=0;portConstraint=eastwest;newEdgeStyle={&quot;edgeStyle&quot;:&quot;elbowEdgeStyle&quot;,&quot;elbow&quot;:&quot;vertical&quot;,&quot;curved&quot;:0,&quot;rounded&quot;:0};" vertex="1" parent="1">
          <mxGeometry x="377" y="60" width="180" height="650" as="geometry" />
        </mxCell>
        <mxCell id="dCPt5uYmCE7IjtqLBRDj-4" value="&lt;div style=&quot;background-color: rgb(255, 255, 254); line-height: 18px;&quot;&gt;data-resources-server&lt;/div&gt;" style="shape=umlLifeline;perimeter=lifelinePerimeter;whiteSpace=wrap;html=1;container=1;dropTarget=0;collapsible=0;recursiveResize=0;outlineConnect=0;portConstraint=eastwest;newEdgeStyle={&quot;edgeStyle&quot;:&quot;elbowEdgeStyle&quot;,&quot;elbow&quot;:&quot;vertical&quot;,&quot;curved&quot;:0,&quot;rounded&quot;:0};" vertex="1" parent="1">
          <mxGeometry x="667" y="62" width="160" height="650" as="geometry" />
        </mxCell>
        <mxCell id="dCPt5uYmCE7IjtqLBRDj-5" value="&lt;pre style=&quot;background-color:#2b2b2b;color:#a9b7c6;font-family:&#39;JetBrains Mono&#39;,monospace;font-size:9.8pt;&quot;&gt;&lt;div style=&quot;color: rgb(0, 0, 0); background-color: rgb(255, 255, 254); font-size: 12px; line-height: 18px;&quot;&gt;elastic-job&lt;/div&gt;&lt;/pre&gt;" style="shape=umlLifeline;perimeter=lifelinePerimeter;whiteSpace=wrap;html=1;container=1;dropTarget=0;collapsible=0;recursiveResize=0;outlineConnect=0;portConstraint=eastwest;newEdgeStyle={&quot;edgeStyle&quot;:&quot;elbowEdgeStyle&quot;,&quot;elbow&quot;:&quot;vertical&quot;,&quot;curved&quot;:0,&quot;rounded&quot;:0};" vertex="1" parent="1">
          <mxGeometry x="-150" y="60" width="130" height="650" as="geometry" />
        </mxCell>
        <mxCell id="dCPt5uYmCE7IjtqLBRDj-6" value="" style="html=1;points=[];perimeter=orthogonalPerimeter;outlineConnect=0;targetShapes=umlLifeline;portConstraint=eastwest;newEdgeStyle={&quot;edgeStyle&quot;:&quot;elbowEdgeStyle&quot;,&quot;elbow&quot;:&quot;vertical&quot;,&quot;curved&quot;:0,&quot;rounded&quot;:0};" vertex="1" parent="dCPt5uYmCE7IjtqLBRDj-5">
          <mxGeometry x="60" y="70" width="10" height="40" as="geometry" />
        </mxCell>
        <mxCell id="dCPt5uYmCE7IjtqLBRDj-7" style="edgeStyle=elbowEdgeStyle;rounded=0;orthogonalLoop=1;jettySize=auto;html=1;elbow=vertical;curved=0;" edge="1" parent="1" source="dCPt5uYmCE7IjtqLBRDj-6" target="dCPt5uYmCE7IjtqLBRDj-2">
          <mxGeometry relative="1" as="geometry" />
        </mxCell>
        <mxCell id="dCPt5uYmCE7IjtqLBRDj-8" value="启动工单下发流程" style="edgeLabel;html=1;align=center;verticalAlign=middle;resizable=0;points=[];" vertex="1" connectable="0" parent="dCPt5uYmCE7IjtqLBRDj-7">
          <mxGeometry x="0.0728" y="-2" relative="1" as="geometry">
            <mxPoint x="-11" y="-2" as="offset" />
          </mxGeometry>
        </mxCell>
        <mxCell id="dCPt5uYmCE7IjtqLBRDj-10" value="下发工单任务执行流程" style="text;html=1;strokeColor=none;fillColor=none;align=center;verticalAlign=middle;whiteSpace=wrap;rounded=0;" vertex="1" parent="1">
          <mxGeometry x="-180" y="240" width="20" height="180" as="geometry" />
        </mxCell>
        <mxCell id="dCPt5uYmCE7IjtqLBRDj-14" value="&lt;div style=&quot;background-color: rgb(255, 255, 254); line-height: 18px;&quot;&gt;接入方&lt;/div&gt;" style="shape=umlLifeline;perimeter=lifelinePerimeter;whiteSpace=wrap;html=1;container=1;dropTarget=0;collapsible=0;recursiveResize=0;outlineConnect=0;portConstraint=eastwest;newEdgeStyle={&quot;edgeStyle&quot;:&quot;elbowEdgeStyle&quot;,&quot;elbow&quot;:&quot;vertical&quot;,&quot;curved&quot;:0,&quot;rounded&quot;:0};" vertex="1" parent="1">
          <mxGeometry x="960" y="62" width="100" height="652" as="geometry" />
        </mxCell>
        <mxCell id="dCPt5uYmCE7IjtqLBRDj-15" value="&lt;div style=&quot;background-color: rgb(255, 255, 254); line-height: 18px;&quot;&gt;workflow&lt;/div&gt;" style="shape=umlLifeline;perimeter=lifelinePerimeter;whiteSpace=wrap;html=1;container=1;dropTarget=0;collapsible=0;recursiveResize=0;outlineConnect=0;portConstraint=eastwest;newEdgeStyle={&quot;edgeStyle&quot;:&quot;elbowEdgeStyle&quot;,&quot;elbow&quot;:&quot;vertical&quot;,&quot;curved&quot;:0,&quot;rounded&quot;:0};" vertex="1" parent="1">
          <mxGeometry x="1210" y="62" width="160" height="650" as="geometry" />
        </mxCell>
      </root>
    </mxGraphModel>
  </diagram>
</mxfile>
